<svg xmlns="http://www.w3.org/2000/svg" version="1.0" width="500.000000pt" height="102.000000pt" viewBox="0 0 500.000000 102.000000" preserveAspectRatio="xMidYMid meet">

<g transform="translate(0.000000,102.000000) scale(0.100000,-0.100000)" fill="#ffffff" stroke="none">
<path d="M205 995 c-44 -24 -76 -56 -91 -91 -11 -25 -21 -33 -52 -38 -36 -5 -52 -20 -52 -46 0 -18 33 -40 60 -40 23 0 32 -7 47 -37 60 -122 235 -139 314 -30 16 22 29 46 29 54 0 22 99 18 107 -4 13 -37 55 -84 93 -103 96 -49 233 3 256 97 4 16 13 23 31 23 31 0 59 15 67 35 8 22 -29 55 -63 55 -22 0 -30 6 -35 23 -16 63 -94 117 -171 117 -73 0 -133 -37 -166 -102 -18 -36 -22 -38 -67 -38 -45 1 -48 2 -66 41 -26 56 -83 92 -154 96 -39 3 -66 -1 -87 -12z m132 -85 c75 -45 54 -164 -33 -186 -63 -16 -124 33 -124 100 1 87 83 132 157 86z m480 -15 c30 -35 38 -69 23 -104 -17 -42 -43 -62 -89 -68 -36 -5 -44 -2 -76 30 -27 27 -35 43 -35 72 0 29 8 45 35 72 32 32 39 35 78 30 28 -4 49 -14 64 -32z" fill="#ffffff"/>
<path d="M1135 998 c-3 -7 -4 -231 -3 -498 3 -423 5 -485 18 -485 13 0 15 62 15 494 0 387 -3 495 -12 498 -7 3 -15 -1 -18 -9z" fill="#ffffff"/>
<path d="M1445 941 c-8 -16 -32 -69 -54 -118 -21 -48 -55 -124 -76 -167 -35 -74 -36 -81 -20 -92 19 -14 55 -3 55 17 0 6 10 33 21 60 l21 49 85 0 84 0 28 -64 c16 -35 35 -66 43 -68 18 -7 38 2 38 16 0 11 -156 357 -173 384 -14 21 -36 13 -52 -17z m59 -127 c14 -31 26 -60 26 -65 0 -5 -25 -9 -55 -9 -30 0 -55 4 -55 10 0 13 48 120 54 120 2 0 16 -25 30 -56z" fill="#ffffff"/>
<path d="M4833 963 c-7 -2 -13 -22 -13 -43 0 -32 -4 -39 -26 -44 -33 -9 -31 -49 4 -54 21 -3 22 -6 22 -127 0 -148 1 -150 98 -128 64 15 83 32 63 57 -10 12 -19 12 -56 0 l-45 -13 0 58 c0 32 -3 79 -6 105 l-7 46 46 0 c32 0 47 5 51 16 10 26 -13 44 -56 44 -39 0 -39 1 -33 30 4 19 2 36 -5 45 -13 16 -17 17 -37 8z" fill="#ffffff"/>
<path d="M1925 880 c-4 -7 -24 -8 -55 -4 -83 11 -150 -26 -150 -83 0 -38 41 -72 114 -96 78 -25 100 -47 74 -73 -24 -24 -93 -22 -128 5 -39 28 -60 27 -60 -3 0 -65 171 -94 232 -39 25 22 24 94 -1 117 -10 9 -49 27 -86 39 -38 12 -73 29 -78 39 -28 44 66 67 116 28 43 -34 59 -27 55 27 -3 45 -19 66 -33 43z" fill="#ffffff"/>
<path d="M2257 883 c-4 -3 -41 -7 -81 -7 -64 -1 -78 -4 -100 -25 -35 -33 -35 -83 -1 -115 13 -12 51 -30 84 -39 72 -20 95 -40 81 -68 -17 -30 -102 -29 -136 2 -24 23 -52 25 -60 4 -14 -36 57 -78 132 -77 81 1 123 30 124 88 0 42 -35 72 -116 98 -77 25 -100 49 -70 72 28 20 89 18 119 -6 43 -34 59 -27 55 27 -3 44 -15 62 -31 46z" fill="#ffffff"/>
<path d="M2947 883 c-4 -3 -41 -7 -81 -7 -64 -1 -78 -4 -100 -25 -35 -33 -35 -83 -1 -115 13 -12 51 -30 84 -39 72 -20 95 -40 81 -68 -17 -30 -102 -29 -136 2 -24 23 -52 25 -60 4 -14 -36 57 -78 132 -77 82 1 123 30 124 89 0 39 -42 77 -103 94 -89 24 -121 56 -78 79 32 16 86 12 114 -10 43 -34 59 -27 55 27 -3 44 -15 62 -31 46z" fill="#ffffff"/>
<path d="M3265 880 c-4 -7 -24 -8 -55 -4 -83 11 -150 -26 -150 -83 0 -38 41 -72 114 -96 78 -25 100 -47 74 -73 -24 -24 -93 -22 -128 5 -36 26 -60 27 -60 1 0 -69 174 -101 232 -42 26 26 27 88 1 113 -10 11 -50 29 -87 42 -38 12 -74 29 -79 39 -28 44 66 67 116 28 26 -20 52 -26 60 -12 3 4 2 25 -2 46 -6 39 -23 57 -36 36z" fill="#ffffff"/>
<path d="M2454 866 c-112 -49 -120 -236 -13 -291 37 -19 118 -22 151 -4 34 17 68 51 68 66 0 25 -30 26 -55 3 -36 -34 -111 -39 -147 -10 -16 12 -28 28 -28 35 0 16 1 16 134 45 l98 22 -5 35 c-8 49 -33 82 -72 99 -42 17 -90 17 -131 0z m105 -51 c24 -12 48 -43 39 -50 -5 -4 -150 -35 -165 -35 -31 0 11 74 52 91 29 12 43 11 74 -6z" fill="#ffffff"/>
<path d="M3387 873 c-15 -14 -7 -43 12 -43 16 0 19 -12 25 -93 3 -52 3 -108 0 -125 -7 -34 9 -64 29 -57 7 2 24 6 40 9 33 8 38 45 7 53 -18 5 -20 14 -20 89 0 79 1 84 26 101 35 22 88 22 114 -2 26 -23 28 -109 3 -178 -15 -41 -15 -49 -3 -62 22 -21 100 0 100 27 0 11 -8 22 -19 25 -16 4 -18 9 -10 36 5 18 9 59 7 92 -2 56 0 61 25 73 34 16 79 8 103 -19 24 -26 23 -122 0 -167 -19 -37 -21 -72 -3 -73 26 -2 63 3 80 12 20 12 23 38 3 45 -11 4 -13 23 -9 87 4 71 2 87 -17 115 -21 35 -72 62 -114 62 -14 0 -43 -7 -65 -16 -36 -14 -42 -14 -70 0 -38 20 -84 20 -121 1 -25 -13 -29 -13 -34 0 -5 15 -76 22 -89 8z" fill="#ffffff"/>
<path d="M4085 866 c-80 -36 -117 -135 -81 -219 30 -71 98 -103 180 -85 53 11 109 58 100 82 -8 22 -17 20 -60 -9 -25 -17 -50 -25 -78 -25 -44 1 -66 13 -84 47 -12 21 -9 22 66 38 175 38 178 40 144 110 -32 67 -114 93 -187 61z m123 -68 c12 -12 22 -24 22 -28 0 -8 -170 -43 -177 -36 -13 12 21 65 50 80 37 19 73 13 105 -16z" fill="#ffffff"/>
<path d="M4356 863 c-7 -16 16 -43 36 -43 4 0 8 -58 8 -130 0 -133 1 -135 40 -131 48 5 61 12 58 34 -2 14 -11 23 -26 25 -23 4 -23 5 -17 80 6 66 10 80 32 99 103 86 192 -28 132 -168 -17 -38 -19 -52 -10 -63 11 -13 19 -13 58 -1 26 8 50 19 54 26 11 18 -1 39 -22 39 -16 0 -18 4 -12 28 12 44 7 126 -11 160 -31 60 -109 79 -178 43 -35 -18 -37 -18 -41 0 -7 26 -92 27 -101 2z" fill="#ffffff"/>
<path d="M350 480 l0 -50 163 0 c131 0 167 -3 185 -16 21 -15 22 -20 22 -210 l0 -194 150 0 150 0 0 244 c0 134 -3 251 -6 260 -5 14 -44 16 -335 16 l-329 0 0 -50z" fill="#ffffff"/>
<path d="M2337 514 c-19 -19 -6 -43 26 -46 l32 -3 5 -205 5 -205 40 2 c49 4 74 25 55 48 -8 9 -20 13 -32 9 -19 -6 -20 0 -17 198 l3 203 -55 3 c-30 2 -58 0 -62 -4z" fill="#ffffff"/>
<path d="M1294 445 c-12 -31 4 -45 50 -45 l46 0 2 -172 3 -173 25 0 25 0 3 173 2 172 49 0 c52 0 73 19 50 46 -17 21 -247 20 -255 -1z" fill="#ffffff"/>
<path d="M22 368 c-8 -8 -12 -64 -12 -185 l0 -173 335 0 335 0 0 173 c0 121 -4 177 -12 185 -17 17 -629 17 -646 0z m546 -120 c16 -16 15 -23 -4 -42 -23 -24 -415 -24 -438 0 -19 19 -20 26 -4 42 17 17 429 17 446 0z m6 -134 c15 -40 -7 -44 -229 -44 -177 0 -215 3 -225 15 -10 12 -10 18 0 30 10 12 49 15 230 15 192 0 219 -2 224 -16z" fill="#ffffff"/>
<path d="M1707 366 c-49 -18 -64 -32 -89 -80 -37 -73 -15 -158 56 -210 39 -29 133 -29 172 0 53 39 69 70 69 137 0 49 -5 69 -23 95 -42 58 -119 82 -185 58z m124 -75 c63 -63 22 -181 -63 -184 -71 -2 -108 37 -108 114 0 90 107 134 171 70z" fill="#ffffff"/>
<path d="M2087 366 c-49 -18 -64 -32 -89 -80 -37 -73 -15 -158 56 -210 39 -29 133 -29 172 0 54 40 69 70 69 139 0 49 -5 70 -21 92 -43 58 -122 83 -187 59z m124 -75 c63 -63 22 -181 -63 -184 -71 -2 -108 37 -108 114 0 90 107 134 171 70z" fill="#ffffff"/>
</g>
</svg>